{
    "asset" : {
        "generator" : "Khronos glTF Blender I/O v1.6.16",
        "version" : "2.0"
    },
    "scene" : 0,
    "scenes" : [
        {
            "name" : "Scene",
            "nodes" : [
                0
            ]
        }
    ],
    "nodes" : [
        {
            "mesh" : 0,
            "name" : "Cursor",
            "translation" : [
                0,
                0.35199999809265137,
                0
            ]
        }
    ],
    "animations" : [
        {
            "channels" : [
                {
                    "sampler" : 0,
                    "target" : {
                        "node" : 0,
                        "path" : "rotation"
                    }
                }
            ],
            "name" : "anim1",
            "samplers" : [
                {
                    "input" : 8,
                    "interpolation" : "LINEAR",
                    "output" : 9
                }
            ]
        }
    ],
    "materials" : [
        {
            "name" : "Blue",
            "pbrMetallicRoughness" : {
                "baseColorFactor" : [
                    0,
                    0.10000014305114746,
                    1,
                    1
                ],
                "metallicFactor" : 0
            }
        },
        {
            "name" : "White",
            "pbrMetallicRoughness" : {
                "metallicFactor" : 0
            }
        }
    ],
    "meshes" : [
        {
            "name" : "pixel art (mouse cursor).001",
            "primitives" : [
                {
                    "attributes" : {
                        "POSITION" : 0,
                        "NORMAL" : 1,
                        "TEXCOORD_0" : 2
                    },
                    "indices" : 3,
                    "material" : 0
                },
                {
                    "attributes" : {
                        "POSITION" : 4,
                        "NORMAL" : 5,
                        "TEXCOORD_0" : 6
                    },
                    "indices" : 7,
                    "material" : 1
                }
            ]
        }
    ],
    "accessors" : [
        {
            "bufferView" : 0,
            "componentType" : 5126,
            "count" : 547,
            "max" : [
                2.035011053085327,
                3.974658727645874,
                0.24601531028747559
            ],
            "min" : [
                -2.652646780014038,
                -2.0822412967681885,
                -0.22070454061031342
            ],
            "type" : "VEC3"
        },
        {
            "bufferView" : 1,
            "componentType" : 5126,
            "count" : 547,
            "type" : "VEC3"
        },
        {
            "bufferView" : 2,
            "componentType" : 5126,
            "count" : 547,
            "type" : "VEC2"
        },
        {
            "bufferView" : 3,
            "componentType" : 5123,
            "count" : 1332,
            "type" : "SCALAR"
        },
        {
            "bufferView" : 4,
            "componentType" : 5126,
            "count" : 434,
            "max" : [
                1.7599318027496338,
                3.6993091106414795,
                0.23474256694316864
            ],
            "min" : [
                -2.377567768096924,
                -1.8069287538528442,
                -0.20943179726600647
            ],
            "type" : "VEC3"
        },
        {
            "bufferView" : 5,
            "componentType" : 5126,
            "count" : 434,
            "type" : "VEC3"
        },
        {
            "bufferView" : 6,
            "componentType" : 5126,
            "count" : 434,
            "type" : "VEC2"
        },
        {
            "bufferView" : 7,
            "componentType" : 5123,
            "count" : 1908,
            "type" : "SCALAR"
        },
        {
            "bufferView" : 8,
            "componentType" : 5126,
            "count" : 61,
            "max" : [
                2.5
            ],
            "min" : [
                0
            ],
            "type" : "SCALAR"
        },
        {
            "bufferView" : 9,
            "componentType" : 5126,
            "count" : 61,
            "type" : "VEC4"
        }
    ],
    "bufferViews" : [
        {
            "buffer" : 0,
            "byteLength" : 6564,
            "byteOffset" : 0
        },
        {
            "buffer" : 0,
            "byteLength" : 6564,
            "byteOffset" : 6564
        },
        {
            "buffer" : 0,
            "byteLength" : 4376,
            "byteOffset" : 13128
        },
        {
            "buffer" : 0,
            "byteLength" : 2664,
            "byteOffset" : 17504
        },
        {
            "buffer" : 0,
            "byteLength" : 5208,
            "byteOffset" : 20168
        },
        {
            "buffer" : 0,
            "byteLength" : 5208,
            "byteOffset" : 25376
        },
        {
            "buffer" : 0,
            "byteLength" : 3472,
            "byteOffset" : 30584
        },
        {
            "buffer" : 0,
            "byteLength" : 3816,
            "byteOffset" : 34056
        },
        {
            "buffer" : 0,
            "byteLength" : 244,
            "byteOffset" : 37872
        },
        {
            "buffer" : 0,
            "byteLength" : 976,
            "byteOffset" : 38116
        }
    ],
    "buffers" : [
        {
            "byteLength" : 39092,
            "uri" : "data:application/octet-stream;base64,"
        }
    ]
}
